PathFileType	4	(X/Y/Z)	Kaydara	
DataRate	CameraRate	NumFrames	NumMarkers	Units	OrigDataRate	OrigDataStartFrame	OrigNumFrames	
60.00	60.00	4	74	mm	60.00	464	151	
Frame#	Time	Z_lasi			Z_rasi			Z_rpsi			Z_lpsi			Z_fneck			Z_bneck			Z_fhead			Z_rhead			Z_lhead			Z_rshld			Z_relbtop			Z_relbext			Z_relblow			Z_rwrext			Z_rwrtop			Z_rwrlow			Z_lshld			Z_lelbext			Z_lelblow			Z_lelbtop			Z_lwrext			Z_lwrtop			Z_lwrlow			Z_rtopleg			Z_ltopleg			Z_rkneefr			Z_rkneebk			Z_rkneeis			Z_lkneefr			Z_lknssbk			Z_lkneeis			Z_rankfr			Z_rankis			Z_rankbk			Z_lankfr			Z_lankbk			Z_lankis			A_lasi			A_rasi			A_rpsi			A_lpsi			A_fneck			A_bneck			A_fhead			A_rhead			A_lhead			A_rshld			A_relbtop			A_relbext			A_relblow			A_rwrext			A_rwrtop			A_rwrlow			A_lshld			A_lelbext			A_lelblow			A_lelbtop			A_lwrext			A_lwrtop			A_lwrlow			A_rtopleg			A_ltopleg			A_rkneefr			A_rkneebk			A_rkneeis			A_lkneefr			A_lknssbk			A_lkneeis			A_rankfr			A_rankis			A_rankbk			A_lankfr			A_lankbk			A_lankis			
		X1	Y1	Z1	X2	Y2	Z2	X3	Y3	Z3	X4	Y4	Z4	X5	Y5	Z5	X6	Y6	Z6	X7	Y7	Z7	X8	Y8	Z8	X9	Y9	Z9	X10	Y10	Z10	X11	Y11	Z11	X12	Y12	Z12	X13	Y13	Z13	X14	Y14	Z14	X15	Y15	Z15	X16	Y16	Z16	X17	Y17	Z17	X18	Y18	Z18	X19	Y19	Z19	X20	Y20	Z20	X21	Y21	Z21	X22	Y22	Z22	X23	Y23	Z23	X24	Y24	Z24	X25	Y25	Z25	X26	Y26	Z26	X27	Y27	Z27	X28	Y28	Z28	X29	Y29	Z29	X30	Y30	Z30	X31	Y31	Z31	X32	Y32	Z32	X33	Y33	Z33	X34	Y34	Z34	X35	Y35	Z35	X36	Y36	Z36	X37	Y37	Z37	X38	Y38	Z38	X39	Y39	Z39	X40	Y40	Z40	X41	Y41	Z41	X42	Y42	Z42	X43	Y43	Z43	X44	Y44	Z44	X45	Y45	Z45	X46	Y46	Z46	X47	Y47	Z47	X48	Y48	Z48	X49	Y49	Z49	X50	Y50	Z50	X51	Y51	Z51	X52	Y52	Z52	X53	Y53	Z53	X54	Y54	Z54	X55	Y55	Z55	X56	Y56	Z56	X57	Y57	Z57	X58	Y58	Z58	X59	Y59	Z59	X60	Y60	Z60	X61	Y61	Z61	X62	Y62	Z62	X63	Y63	Z63	X64	Y64	Z64	X65	Y65	Z65	X66	Y66	Z66	X67	Y67	Z67	X68	Y68	Z68	X69	Y69	Z69	X70	Y70	Z70	X71	Y71	Z71	X72	Y72	Z72	X73	Y73	Z73	X74	Y74	Z74	

114	7.717	-284.57281	1080.88356	675.21622	-326.68289	1089.90822	473.58643	-149.89748	1116.59279	403.94051	-94.07896	1101.62476	641.40175	-273.71586	1448.46710	566.78963	-161.81286	1512.99118	564.52538	-362.30511	1651.75476	548.86730	-210.98520	1650.42679	474.86656	-208.35390	1652.86636	622.41890	-221.62516	1443.53989	359.04850	-173.46972	1125.16617	269.98377	-162.64933	1104.90356	326.63429	-246.47600	1137.86522	291.49891	-286.54831	904.98619	244.66017	-324.55555	921.38321	264.07690	-312.28455	914.69162	305.53589	-174.07753	1448.11356	751.60332	-131.82249	1133.35373	759.51820	-192.92469	1156.65665	821.10130	-124.49312	1154.13124	827.63412	-269.81461	904.13017	812.40463	-258.53687	897.16812	857.90176	-212.70565	890.83412	849.97612	-192.79383	928.20953	351.50463	-190.48038	893.45154	715.96649	-255.98255	422.60384	398.49342	-184.90023	453.59001	351.03218	-194.35177	432.86877	473.95271	-220.42376	446.29635	670.29190	-114.10904	474.68925	659.79691	-207.46649	443.88512	578.04790	-207.19036	181.49580	375.45017	-184.82418	176.98999	438.02925	-130.63960	176.23499	368.95061	-154.27385	164.17744	668.71338	-96.40699	166.96526	613.60107	-174.12760	173.72005	598.30761	-986.85600	1031.41136	467.22740	-972.13066	1039.05197	626.84795	-1132.85904	1039.53514	647.02042	-1110.58334	1042.57118	464.85527	-1046.13968	1385.37384	554.30725	-1186.09055	1405.45715	549.59846	-1001.76315	1600.60196	584.38641	-1141.30310	1539.16077	665.13390	-1146.39587	1563.65921	503.18966	-1127.11060	1351.37726	732.35512	-1106.32980	1059.36203	766.28204	-1166.48636	1051.64467	742.21405	-1102.70973	1047.92664	708.29933	-1080.21019	812.55608	793.29102	-1037.23976	824.33929	782.13509	-1048.95081	822.11349	740.61676	-1088.79089	1353.84232	376.19541	-1115.81467	1042.48924	358.70537	-1047.68089	1052.43347	381.40900	-1073.18649	1049.55917	333.70628	-1019.82735	825.29099	376.24214	-1021.69983	825.90805	334.91245	-978.69102	837.29752	345.56843	-1078.94547	876.17767	727.38503	-1047.65724	890.12306	389.44759	-1032.76894	453.46153	634.25987	-1137.71317	484.81411	683.08220	-1122.20352	484.91005	564.33735	-1021.05835	465.68474	506.77437	-1103.18222	478.54053	410.33062	-1127.48520	478.49476	534.66564	-1098.88138	164.70982	658.62404	-1134.42520	161.80426	593.83259	-1179.63760	152.40016	664.92592	-1069.17618	165.81116	456.92165	-1129.74716	166.53790	420.75020	-1129.31602	172.50280	510.08587 
115	7.733	-284.73297	1080.89272	675.18990	-326.78066	1089.91203	473.52669	-150.07701	1116.54869	403.82946	-94.25052	1101.61728	641.28059	-273.78532	1448.39966	566.66492	-162.21241	1513.08014	564.50413	-362.63023	1651.58295	548.91438	-211.45193	1650.42938	474.71111	-208.56539	1652.88284	622.28283	-221.58022	1443.49976	358.88977	-173.46855	1125.09811	269.86094	-162.57883	1104.82750	326.60446	-246.50106	1137.81052	291.33341	-286.52084	904.88525	244.33102	-324.91314	921.58913	263.10398	-312.33141	914.61403	305.20510	-174.04821	1448.12363	751.43776	-131.85575	1133.40431	759.36073	-192.99252	1156.67076	820.99869	-124.55394	1154.11064	827.47864	-270.02424	904.22127	812.19955	-258.78782	897.24342	857.59247	-212.88486	890.85220	849.79874	-193.05580	928.24158	351.46900	-190.61575	893.46947	715.89989	-256.16985	422.59346	398.47530	-185.09354	453.59669	350.97221	-194.29020	432.83310	473.81145	-220.24708	446.24393	670.11154	-113.98683	474.75101	659.59129	-207.65732	443.84773	578.05649	-207.25456	181.47486	375.42191	-184.89334	176.99883	438.06194	-130.72775	176.25399	368.95576	-154.30983	164.19243	668.73741	-96.47293	166.96810	613.63571	-174.18644	173.71759	598.34034	-986.70418	1031.22612	467.13966	-971.66168	1039.11453	626.99856	-1132.68150	1039.78592	647.05482	-1110.54230	1042.93312	464.79183	-1044.67415	1385.90820	554.78012	-1185.03365	1404.42795	549.42410	-1002.90863	1601.97006	585.24490	-1142.33688	1538.60596	664.89616	-1146.42586	1563.16559	502.90749	-1125.87685	1351.65894	732.53952	-1105.92873	1059.54430	766.24588	-1165.72906	1051.98563	742.05315	-1102.02431	1048.04634	708.21556	-1080.12596	812.75764	793.21968	-1037.25731	824.43176	781.83403	-1048.99742	822.22145	740.38521	-1087.37740	1354.17175	376.42452	-1115.25215	1042.87918	358.71315	-1047.16270	1052.64999	381.60000	-1072.51884	1049.85085	333.86906	-1020.09430	825.35004	376.15749	-1021.80351	826.04736	334.85809	-978.76244	837.30530	345.59643	-1079.12354	876.20407	727.36862	-1047.80495	890.15511	389.41132	-1033.03543	453.44219	634.23100	-1138.03093	484.80690	683.12263	-1122.52899	484.89990	564.34006	-1021.29990	465.73147	506.80027	-1103.44910	478.54885	410.27420	-1127.59140	478.43586	534.54182	-1098.94943	164.72391	658.58849	-1134.54803	161.78911	593.84342	-1179.69414	152.31551	664.94614	-1069.23988	165.81167	456.91521	-1129.81529	166.51396	420.77335	-1129.41162	172.49395	510.09277 
116	7.750	-284.84987	1080.86006	675.16296	-326.89804	1089.88754	473.48785	-150.27433	1116.54259	403.74218	-94.37594	1101.61972	641.16638	-273.90455	1448.31375	566.55685	-162.33700	1513.09067	564.35875	-362.88551	1651.46011	549.00013	-211.90020	1650.44937	474.60625	-208.76865	1652.87186	622.22507	-221.60563	1443.41614	358.76225	-173.44296	1125.03685	269.74571	-162.74096	1104.67789	326.42200	-246.40760	1137.69173	291.21119	-286.48714	904.83696	244.08749	-324.76059	921.45218	262.85677	-312.23501	914.47990	304.72343	-174.09721	1448.09753	751.27701	-131.88443	1133.42522	759.15543	-193.04102	1156.65817	820.83626	-124.59002	1154.09126	827.32819	-270.21526	904.28841	811.96098	-258.97884	897.25014	857.36946	-213.16183	890.81520	849.61311	-193.32069	928.26736	351.40347	-190.68266	893.50502	715.80315	-256.35813	422.57523	398.43884	-185.29812	453.60744	350.89870	-194.33012	432.82066	473.69400	-220.35374	446.30001	670.14458	-114.25043	474.74892	659.74312	-207.82370	443.84773	578.06076	-207.20221	181.34787	375.48306	-184.97612	176.99532	438.08151	-130.86905	176.30363	368.97495	-154.30120	164.19449	668.72658	-96.48041	167.02248	613.61496	-174.25184	173.72759	598.40057	-986.56311	1031.04103	467.07676	-971.52443	1038.88084	627.00294	-1132.46307	1040.31357	647.06009	-1110.21194	1043.08296	464.91566	-1043.22594	1386.31104	554.99771	-1183.85612	1403.48221	549.22962	-1004.00414	1603.26675	585.94296	-1143.24554	1538.03070	664.61784	-1146.32652	1562.65915	502.50961	-1124.58862	1351.92398	732.61093	-1105.18730	1059.78477	766.24283	-1165.28915	1052.36191	742.07848	-1101.02768	1048.34572	708.15987	-1079.89456	812.98080	793.08861	-1037.10770	824.48677	781.56807	-1048.88680	822.32162	740.14145	-1086.01852	1354.46518	376.59782	-1114.65263	1043.27995	358.74176	-1046.67160	1052.83485	381.61121	-1071.98486	1050.12100	334.00021	-1020.31479	825.43045	376.10920	-1021.79703	826.19278	334.82361	-978.75717	837.34077	345.66429	-1079.23820	876.22246	727.30293	-1047.96387	890.14740	389.29535	-1033.30139	453.40088	634.20650	-1138.35342	484.80225	683.13637	-1122.89375	484.90765	564.32201	-1021.56479	465.71102	506.73134	-1103.69202	478.54328	410.23956	-1127.86362	478.42102	534.49806	-1099.11491	164.62997	658.70361	-1134.66980	161.76315	593.86208	-1179.77264	152.27386	664.95171	-1069.31442	165.83309	456.85143	-1129.89761	166.50339	420.77034	-1129.47159	172.46298	510.07397 
117	7.767	-284.92931	1080.86937	675.16045	-326.99860	1089.84131	473.47084	-150.55263	1116.49765	403.71510	-94.48523	1101.60728	641.07590	-274.04095	1448.26584	566.49097	-162.49884	1513.10211	564.22554	-363.12386	1651.34048	549.08752	-212.22942	1650.46066	474.57771	-208.97160	1652.83600	622.19990	-221.69897	1443.33572	358.62076	-173.42587	1124.93851	269.64859	-162.75145	1104.47510	326.33694	-246.25467	1137.53036	291.11282	-286.39154	904.75082	243.90461	-324.67449	921.36169	262.61677	-312.28424	914.39980	304.54004	-174.12786	1448.16055	751.16623	-131.90504	1133.42735	758.97392	-193.01449	1156.66725	820.68588	-124.57189	1154.06334	827.14233	-270.33550	904.35440	811.77422	-259.06078	897.22481	857.18521	-213.36180	890.77126	849.50920	-193.58181	928.25951	351.33926	-190.78213	893.49060	715.73418	-256.54102	422.55699	398.45284	-185.49158	453.63045	350.86491	-194.45192	432.86552	473.66077	-220.55470	446.35826	670.26291	-113.99184	474.83452	659.45427	-207.95765	443.86501	578.07629	-207.44436	181.41369	375.39398	-184.98547	176.97792	438.04771	-130.87309	176.31382	368.99166	-154.30504	164.21429	668.76938	-96.42107	167.07645	613.51494	-174.28715	173.72564	598.40454	-986.39793	1030.89027	467.01439	-971.33835	1038.75793	627.11250	-1132.21680	1040.52917	647.07664	-1110.10986	1043.28392	464.90490	-1041.94458	1386.82358	555.37434	-1182.80197	1402.65747	549.10942	-1005.08926	1604.53217	586.65394	-1143.92738	1537.63168	664.32549	-1146.22231	1562.11884	502.09724	-1123.48900	1352.16080	732.82158	-1104.36607	1059.81155	766.38901	-1164.69437	1052.66525	742.04636	-1100.64453	1048.52356	708.17688	-1079.55826	813.15529	792.96104	-1036.75476	824.54666	781.24512	-1048.62221	822.39967	739.87076	-1084.61304	1354.77325	376.88843	-1114.09164	1043.69247	358.84480	-1046.05431	1053.08876	381.75941	-1071.36063	1050.42114	334.08936	-1020.43037	825.53902	376.12251	-1021.68892	826.39526	334.78767	-978.65356	837.40463	345.85674	-1079.35104	876.34811	727.27798	-1048.04031	890.08629	389.21677	-1033.63930	453.25645	635.35004	-1138.69186	484.78706	683.16788	-1123.20335	484.83223	564.27143	-1021.80740	465.69431	506.58501	-1103.91319	478.51868	410.21381	-1128.22372	478.44803	534.54975	-1099.12796	164.73139	658.58383	-1134.83078	161.72749	593.83869	-1179.87686	152.18657	664.93538	-1069.42886	165.85926	456.83418	-1129.95644	166.50232	420.67959	-1129.59213	172.46132	510.08663 
